<svg width="525" height="107" viewBox="0 0 525 107" fill="none" xmlns="http://www.w3.org/2000/svg">
    <path
        d="M13.776 106.376C9.59467 106.376 6.39467 105.181 4.176 102.792C1.872 100.488 0.719999 97.5013 0.719999 93.832C0.719999 92.6373 0.848 91.4427 1.104 90.248C1.27467 89.0533 1.616 87.7733 2.128 86.408C4.26133 80.3493 8.57067 74.376 15.056 68.488C25.296 59.272 38.2667 52.9573 53.968 49.544C54.992 44.8507 55.504 40.328 55.504 35.976C55.504 27.6987 53.584 21 49.744 15.88C48.464 14.344 47.312 13.1067 46.288 12.168C39.12 15.6667 35.536 19.976 35.536 25.096C35.536 28.7653 37.2427 32.0507 40.656 34.952C43.984 37.768 48.0373 39.3893 52.816 39.816C53.2427 39.816 53.456 39.944 53.456 40.2C53.456 41.224 52.7733 41.608 51.408 41.352C45.0933 40.2427 40.016 38.1093 36.176 34.952C32.7627 32.136 31.056 28.936 31.056 25.352C31.056 19.464 35.1947 14.4293 43.472 10.248C41.5093 9.13866 39.3333 8.584 36.944 8.584C33.9573 8.584 31.1413 9.48 28.496 11.272C23.2907 14.6853 20.688 20.1467 20.688 27.656C20.688 32.9467 22.096 37.512 24.912 41.352C27.8133 45.5333 31.824 47.7093 36.944 47.88C38.1387 48.0507 38.736 48.1787 38.736 48.264C38.736 48.6053 38.3947 48.776 37.712 48.776C31.9093 48.776 27.216 46.5147 23.632 41.992C20.56 38.0667 19.024 33.3733 19.024 27.912C19.024 20.1467 22.0107 14.3013 27.984 10.376C30.9707 8.41333 34.2133 7.432 37.712 7.432C40.272 7.432 42.7893 8.072 45.264 9.352C46.288 8.92533 47.3547 8.49866 48.464 8.072C49.5733 7.64533 50.7253 7.26133 51.92 6.92C55.6747 5.81066 62.3307 4.95733 71.888 4.36C73.8507 2.65333 75.216 1.8 75.984 1.8C76.4107 1.8 76.6667 1.97066 76.752 2.312C76.752 2.73866 76.8373 3.37866 77.008 4.23199L83.152 4.488C84.688 4.57333 85.584 4.65866 85.84 4.744C89.0827 5.17066 90.7467 5.768 90.832 6.536C90.9173 7.048 90.8747 7.34666 90.704 7.432C90.6187 7.51733 90.192 7.51733 89.424 7.432C88.9973 7.34666 88.5707 7.304 88.144 7.304H82.896L76.496 7.176C75.0453 19.1227 71.6747 32.5627 66.384 47.496L72.016 47.112H72.912C74.3627 47.112 75.088 47.2827 75.088 47.624C75.088 48.136 74.32 48.4347 72.784 48.52C70.48 48.6907 68.176 48.9467 65.872 49.288C56.5707 75.144 46.16 91.6987 34.64 98.952C26.8747 103.901 19.92 106.376 13.776 106.376ZM55.632 49.16L58.32 48.648C58.6613 48.5627 59.088 48.52 59.6 48.52C60.112 48.4347 60.5813 48.3493 61.008 48.264C63.6533 40.4133 65.744 33.1173 67.28 26.376C68.816 19.6347 69.8827 13.32 70.48 7.432C68.7733 7.51733 66.7253 7.688 64.336 7.944C62.032 8.11466 59.3867 8.41333 56.4 8.84C53.328 9.69333 50.5973 10.5467 48.208 11.4C49.3173 12.424 50.384 13.6187 51.408 14.984C55.3333 20.1893 57.296 26.9733 57.296 35.336C57.296 39.8587 56.7413 44.4667 55.632 49.16ZM12.88 104.072C18.512 104.072 25.2107 101.427 32.976 96.136C42.8747 89.3093 52.0053 73.992 60.368 50.184L55.12 51.208C51.792 63.9227 46.032 75.1013 37.84 84.744C29.136 94.984 20.176 100.104 10.96 100.104C9.936 100.104 8.912 100.019 7.888 99.848C7.632 99.848 7.504 99.72 7.504 99.464C7.504 99.0373 7.67467 98.824 8.016 98.824C9.04 98.9947 10.064 99.08 11.088 99.08C19.8773 99.08 28.496 94.1307 36.944 84.232C44.7947 74.8453 50.2987 64.008 53.456 51.72C36.9867 55.9867 24.272 62.984 15.312 72.712C7.29067 81.2453 3.28 88.712 3.28 95.112C3.28 101.085 6.48 104.072 12.88 104.072ZM78.915 69.512C76.1843 69.0853 74.819 67.1653 74.819 63.752C74.819 58.5467 77.2083 52.7867 81.987 46.472C86.9363 39.816 92.0563 36.488 97.347 36.488C99.139 36.488 100.76 36.9147 102.211 37.768C103.747 38.536 104.515 39.7733 104.515 41.48C104.515 43.4427 103.704 44.552 102.083 44.808C102.595 43.9547 102.851 43.1013 102.851 42.248C102.851 40.3707 101.784 39.432 99.651 39.432C97.603 39.432 95.3843 40.456 92.995 42.504C87.107 47.5387 82.7977 53.384 80.067 60.04C79.2137 62.088 78.787 63.7947 78.787 65.16C78.787 66.2693 79.171 66.824 79.939 66.824C80.7923 66.824 82.2857 65.8427 84.419 63.88C85.8697 62.5147 89.027 58.376 93.891 51.464C95.171 49.672 96.195 48.776 96.963 48.776C97.6457 48.776 97.987 50.568 97.987 54.152V61.32C98.755 65.0747 100.078 66.952 101.955 66.952C102.979 66.952 104.216 66.6107 105.667 65.928C107.203 65.16 108.696 63.9653 110.147 62.344L112.451 59.912C112.707 59.8267 113.006 59.9973 113.347 60.424C113.006 61.3627 111.512 62.9413 108.867 65.16C105.539 67.976 102.467 69.384 99.651 69.384C98.883 69.384 98.115 69.256 97.347 69C95.1283 68.232 93.6777 65.8427 92.995 61.832C92.8243 60.7227 92.6537 59.784 92.483 59.016C92.3977 58.248 92.355 57.608 92.355 57.096C92.355 56.84 92.355 56.6267 92.355 56.456C91.843 57.48 90.3497 59.6133 87.875 62.856C84.2057 67.6347 81.219 69.8533 78.915 69.512ZM109.194 100.616C108.938 100.616 108.639 100.573 108.298 100.488C108.042 100.488 107.701 100.445 107.274 100.36C105.482 100.104 104.074 98.952 103.05 96.904C101.941 94.9413 101.386 92.68 101.386 90.12C101.386 89.0107 101.471 87.944 101.642 86.92C103.605 77.96 108.597 62.2587 116.618 39.816C115.509 39.2187 114.997 38.792 115.082 38.536C115.509 37 116.49 36.0187 118.026 35.592C118.965 33.4587 119.647 31.0693 120.074 28.424V28.296C120.074 27.4427 119.562 26.3333 118.538 24.968L118.154 24.584C118.154 23.9867 118.709 23.8587 119.818 24.2C121.525 24.712 122.805 25.4373 123.658 26.376C124.511 27.2293 124.853 27.9973 124.682 28.68L123.53 32.776C123.103 34.1413 122.677 35.5067 122.25 36.872C127.37 40.1147 130.399 44.808 131.338 50.952C131.338 51.3787 131.509 51.592 131.85 51.592C132.362 51.592 133.343 51.1227 134.794 50.184C137.183 48.5627 138.25 47.752 137.994 47.752C138.421 47.752 138.463 48.0507 138.122 48.648C137.866 49.16 137.439 49.5867 136.842 49.928L131.466 53.256C131.039 62.3013 127.626 67.6347 121.226 69.256C120.885 69.3413 120.543 69.384 120.202 69.384C119.861 69.4693 119.519 69.512 119.178 69.512C117.301 69.512 116.362 68.5307 116.362 66.568C116.362 64.4347 117.386 62.1307 119.434 59.656L121.482 57.864C122.677 56.84 124.511 55.304 126.986 53.256C126.986 51.3787 126.303 49.032 124.938 46.216C123.487 43.2293 122.037 41.4373 120.586 40.84C120.33 40.6693 118.069 47.1547 113.802 60.296C109.279 74.12 106.719 83.3787 106.122 88.072C105.61 91.8267 105.354 93.8747 105.354 94.216C105.354 97.288 106.463 99.0373 108.682 99.464C109.535 99.5493 109.962 99.8053 109.962 100.232C109.962 100.488 109.706 100.616 109.194 100.616ZM120.714 66.824C123.103 66.824 124.938 64.9893 126.218 61.32C126.815 59.6133 127.114 58.0347 127.114 56.584C127.114 56.328 127.114 56.072 127.114 55.816C127.114 55.56 127.071 55.304 126.986 55.048C123.658 58.0347 121.397 60.4667 120.202 62.344C119.519 63.5387 119.178 64.52 119.178 65.288C119.178 66.312 119.69 66.824 120.714 66.824ZM142.165 69.512C139.434 69.0853 138.069 67.1653 138.069 63.752C138.069 58.5467 140.458 52.7867 145.237 46.472C150.186 39.816 155.306 36.488 160.597 36.488C162.389 36.488 164.01 36.9147 165.461 37.768C166.997 38.536 167.765 39.7733 167.765 41.48C167.765 43.4427 166.954 44.552 165.333 44.808C165.845 43.9547 166.101 43.1013 166.101 42.248C166.101 40.3707 165.034 39.432 162.901 39.432C160.853 39.432 158.634 40.456 156.245 42.504C150.357 47.5387 146.048 53.384 143.317 60.04C142.464 62.088 142.037 63.7947 142.037 65.16C142.037 66.2693 142.421 66.824 143.189 66.824C144.042 66.824 145.536 65.8427 147.669 63.88C149.12 62.5147 152.277 58.376 157.141 51.464C158.421 49.672 159.445 48.776 160.213 48.776C160.896 48.776 161.237 50.568 161.237 54.152V61.32C162.005 65.0747 163.328 66.952 165.205 66.952C166.229 66.952 167.466 66.6107 168.917 65.928C170.453 65.16 171.946 63.9653 173.397 62.344L175.701 59.912C175.957 59.8267 176.256 59.9973 176.597 60.424C176.256 61.3627 174.762 62.9413 172.117 65.16C168.789 67.976 165.717 69.384 162.901 69.384C162.133 69.384 161.365 69.256 160.597 69C158.378 68.232 156.928 65.8427 156.245 61.832C156.074 60.7227 155.904 59.784 155.733 59.016C155.648 58.248 155.605 57.608 155.605 57.096C155.605 56.84 155.605 56.6267 155.605 56.456C155.093 57.48 153.6 59.6133 151.125 62.856C147.456 67.6347 144.469 69.8533 142.165 69.512ZM195.996 72.328C191.559 72.328 189.34 69.4693 189.34 63.752C189.34 60.68 189.98 56.84 191.26 52.232L193.308 44.936L184.348 55.176C182.215 57.6507 180.551 59.6987 179.356 61.32C178.161 62.9413 177.436 64.0933 177.18 64.776C176.156 67.5067 174.577 68.872 172.444 68.872C171.676 68.872 171.42 68.488 171.676 67.72L173.724 59.784C174.407 57.3093 174.876 55.048 175.132 53C175.388 50.8667 175.516 48.9893 175.516 47.368C175.516 46.6853 175.473 46.088 175.388 45.576C175.303 45.064 175.26 44.552 175.26 44.04C175.26 42.9307 175.815 41.9067 176.924 40.968C178.033 40.0293 179.143 39.56 180.252 39.56C181.532 39.56 182.044 40.2853 181.788 41.736C181.532 43.1867 181.233 44.68 180.892 46.216C180.636 47.6667 180.38 49.1173 180.124 50.568L178.076 59.912C183.196 55.2187 188.615 48.392 194.332 39.432C194.673 38.8347 195.484 38.536 196.764 38.536C198.812 38.536 199.879 38.9627 199.964 39.816C200.135 40.584 199.793 42.12 198.94 44.424C197.66 48.1787 196.764 51.1227 196.252 53.256C194.972 58.632 194.332 62.8987 194.332 66.056C194.332 69.128 195.015 70.664 196.38 70.664C197.916 70.664 199.665 69.8107 201.628 68.104C203.42 66.568 204.273 65.8 204.188 65.8C204.444 65.8 204.487 66.1413 204.316 66.824C204.231 67.5067 203.804 68.232 203.036 69C200.817 71.2187 198.471 72.328 195.996 72.328ZM254.687 81.032C250.079 81.032 245.983 79.496 242.399 76.424C238.559 73.096 236.127 68.616 235.103 62.984C230.58 57.4373 228.319 50.9093 228.319 43.4C228.319 35.208 230.922 27.3573 236.127 19.848C240.138 14.0453 245.556 9.43733 252.383 6.024C259.551 2.52533 266.634 0.775993 273.631 0.775993C276.959 0.775993 280.287 1.24533 283.615 2.184C287.711 3.29333 291.082 5.17067 293.727 7.816C296.884 10.8027 298.378 14.3013 298.207 18.312C298.719 18.4827 299.231 18.7387 299.743 19.08C300.255 19.336 300.596 19.6773 300.767 20.104C300.852 20.616 300.724 20.872 300.383 20.872L299.743 20.616C299.658 20.5307 299.444 20.4453 299.103 20.36C298.847 20.1893 298.506 20.0187 298.079 19.848C297.396 24.968 294.794 30.0027 290.271 34.952C285.834 39.816 280.756 43.3573 275.039 45.576C271.455 46.9413 267.871 47.624 264.287 47.624C260.106 47.624 256.692 46.6427 254.047 44.68C251.402 42.7173 250.079 40.2 250.079 37.128C250.079 32.9467 252.639 28.68 257.759 24.328C261.172 21.5973 265.652 19.464 271.199 17.928C276.916 16.3067 282.463 15.6667 287.839 16.008C287.839 13.192 286.772 11.016 284.639 9.48C282.591 7.85866 279.775 7.048 276.191 7.048C270.644 7.048 265.012 8.88266 259.295 12.552C252.639 16.8187 247.178 22.792 242.911 30.472C239.156 37.2987 236.938 44.5947 236.255 52.36C238.388 58.0773 241.972 62.5573 247.007 65.8C252.042 69.0427 258.015 70.4507 264.927 70.024C265.524 69.9387 266.079 69.8533 266.591 69.768C267.188 69.768 267.786 69.7253 268.383 69.64L271.583 69.128C273.119 66.2267 273.887 63.24 273.887 60.168C273.887 55.9013 272.479 53 269.663 51.464C269.407 51.3787 269.364 51.1227 269.535 50.696C269.62 50.44 269.834 50.3973 270.175 50.568C273.674 52.5307 275.423 55.8587 275.423 60.552C275.423 63.2827 274.74 65.9707 273.375 68.616C282.164 66.056 288.65 61.32 292.831 54.408C294.879 51.1653 296.202 49.544 296.799 49.544C296.97 49.544 297.055 49.7147 297.055 50.056C297.055 51.2507 296.244 53.0427 294.623 55.432C289.332 63.2827 281.567 68.8293 271.327 72.072C266.975 78.0453 261.428 81.032 254.687 81.032ZM235.231 48.52C236.255 41.5227 238.431 35.0373 241.759 29.064C246.026 21.384 251.53 15.4107 258.271 11.144C263.988 7.56 269.748 5.768 275.551 5.768C279.647 5.768 282.932 6.70666 285.407 8.584C287.967 10.4613 289.204 12.9787 289.119 16.136C291.508 16.3067 293.684 16.6907 295.647 17.288C294.794 11.8267 290.783 7.73066 283.615 5C280.884 3.89067 277.514 3.336 273.503 3.336C267.018 3.336 260.916 4.872 255.199 7.944C248.202 11.8693 242.74 17.672 238.815 25.352C235.914 30.8133 234.463 36.4027 234.463 42.12C234.463 44.3387 234.719 46.472 235.231 48.52ZM265.567 45.704C268.298 45.704 271.156 45.192 274.143 44.168C279.69 42.2907 284.682 38.92 289.119 34.056C293.727 28.8507 295.988 23.8587 295.903 19.08C294.879 18.7387 293.77 18.5253 292.575 18.44C291.466 18.2693 290.228 18.1413 288.863 18.056C288.522 20.104 287.54 22.3227 285.919 24.712C280.543 32.8187 272.564 36.7013 261.983 36.36C260.788 36.1893 260.191 35.976 260.191 35.72C260.191 35.3787 260.66 35.208 261.599 35.208C266.378 35.208 270.9 34.2693 275.167 32.392C279.519 30.5147 282.762 27.8693 284.895 24.456C286.26 22.3227 287.156 20.1893 287.583 18.056C282.548 18.056 277.343 18.9093 271.967 20.616C266.506 22.3227 262.367 24.4133 259.551 26.888C255.711 30.216 253.791 33.5867 253.791 37C253.791 39.56 254.858 41.6507 256.991 43.272C259.124 44.8933 261.983 45.704 265.567 45.704ZM254.303 79.752C260.02 79.752 264.927 77.4053 269.023 72.712C265.78 73.48 262.538 73.864 259.295 73.864C250.42 73.864 242.996 70.9627 237.023 65.16C238.303 69.8533 240.522 73.4373 243.679 75.912C246.836 78.472 250.378 79.752 254.303 79.752ZM307.005 70.536C304.872 70.536 303.122 69.5547 301.757 67.592C300.392 65.6293 299.709 63.112 299.709 60.04C299.709 57.5653 300.136 55.048 300.989 52.488C304.146 42.9307 308.029 37.9387 312.637 37.512C313.149 36.9147 313.874 36.616 314.813 36.616C316.52 36.616 318.184 37.384 319.805 38.92C321.512 40.456 322.45 42.0773 322.621 43.784C323.73 45.1493 325.352 45.832 327.485 45.832C328.168 45.832 329.192 45.7467 330.557 45.576C331.922 45.4053 332.946 45.32 333.629 45.32C333.97 45.32 334.056 45.5333 333.885 45.96C333.8 46.3013 333.373 46.6853 332.605 47.112C331.069 47.88 329.149 48.3493 326.845 48.52H325.309C323.858 48.52 322.792 48.3493 322.109 48.008C322.536 51.2507 321 55.9013 317.501 61.96C314.344 67.6773 310.845 70.536 307.005 70.536ZM307.773 67.976C309.992 67.976 312.381 65.9707 314.941 61.96C315.624 60.8507 316.264 59.6133 316.861 58.248C317.544 56.8827 318.098 55.3467 318.525 53.64C319.378 50.7387 319.72 48.648 319.549 47.368C316.392 46.856 314.557 45.0213 314.045 41.864C311.741 42.5467 309.522 45.4907 307.389 50.696C305.426 55.56 304.445 59.4853 304.445 62.472C304.445 66.1413 305.554 67.976 307.773 67.976ZM328.426 72.456C325.183 72.456 323.562 71.7733 323.562 70.408C323.562 68.7867 324.927 67.8907 327.658 67.72C331.242 67.5493 335.679 67.1227 340.97 66.44C341.653 65.3307 341.994 64.3493 341.994 63.496C341.994 62.1307 341.013 60.5947 339.05 58.888C334.357 54.792 332.01 50.8667 332.01 47.112C332.01 45.832 332.309 44.6373 332.906 43.528C335.807 38.5787 339.391 36.104 343.658 36.104C345.45 36.104 346.986 36.5733 348.266 37.512C349.546 38.4507 350.186 39.4747 350.186 40.584C350.186 40.9253 350.101 41.2667 349.93 41.608C349.845 41.864 349.717 41.992 349.546 41.992C349.375 41.992 349.162 41.736 348.906 41.224C348.735 39.7733 347.925 39.048 346.474 39.048C344.341 39.048 342.122 40.2 339.818 42.504C337.599 44.8933 336.49 47.1547 336.49 49.288C336.49 51.1653 337.727 53.5973 340.202 56.584C342.677 59.4853 343.914 61.6613 343.914 63.112C343.914 63.7947 343.701 64.648 343.274 65.672C344.383 65.16 345.749 64.4347 347.37 63.496C349.077 62.5573 351.082 61.4053 353.386 60.04C353.642 60.2107 352.661 61.2773 350.442 63.24L342.25 68.104C341.567 69.2987 339.775 70.3227 336.874 71.176C334.229 72.0293 331.413 72.456 328.426 72.456ZM353.929 71.048C353.246 71.048 352.99 70.664 353.161 69.896C355.806 59.0587 357.129 51.2507 357.129 46.472V44.68C357.129 44.168 357.086 43.6987 357.001 43.272C357.001 42.1627 357.598 41.1387 358.793 40.2C359.988 39.2613 361.14 38.792 362.249 38.792C363.188 38.792 363.657 39.1333 363.657 39.816C363.657 40.1573 363.614 40.456 363.529 40.712C362.846 42.248 362.078 46.216 361.225 52.616C360.798 55.6027 360.457 57.864 360.201 59.4C359.86 61.0213 359.646 61.9173 359.561 62.088C362.633 59.272 366.814 53.5547 372.105 44.936C373.897 42.0347 375.433 40.584 376.713 40.584C378.164 40.584 378.889 42.5467 378.889 46.472C378.889 51.336 378.548 55.7307 377.865 59.656C380.425 56.84 384.436 51.9333 389.897 44.936C390.238 43.7413 390.921 42.5467 391.945 41.352C393.054 40.072 393.95 39.432 394.633 39.432C395.23 39.432 395.529 39.944 395.529 40.968C395.529 41.5653 395.486 42.0773 395.401 42.504C394.548 47.368 393.908 51.208 393.481 54.024C393.054 56.84 392.841 58.6747 392.841 59.528C392.841 63.7947 394.334 65.928 397.321 65.928C398.942 65.928 400.734 65.2453 402.697 63.88C404.489 62.6853 406.494 60.936 408.713 58.632C409.31 58.0347 409.865 57.4373 410.377 56.84C410.889 56.2427 411.401 55.6453 411.913 55.048C411.998 54.9627 412.084 54.92 412.169 54.92C412.51 54.92 412.724 55.2187 412.809 55.816C412.212 57.2667 410.121 59.656 406.537 62.984C401.844 67.2507 397.876 69.384 394.633 69.384C393.609 69.384 392.756 69.2133 392.073 68.872C389.172 67.592 387.721 64.52 387.721 59.656C387.721 57.0107 388.148 53.4267 389.001 48.904C384.393 53.512 380.638 57.864 377.737 61.96C377.652 64.008 376.713 65.8427 374.921 67.464C373.214 69 371.892 69.768 370.953 69.768C370.612 69.768 370.526 69.6827 370.697 69.512C371.124 68.4027 371.508 66.8667 371.849 64.904C372.276 62.856 372.702 60.3813 373.129 57.48C373.982 51.6773 374.409 47.5387 374.409 45.064L365.705 56.328C361.524 61.8747 359.177 65.4587 358.665 67.08C357.812 69.7253 356.233 71.048 353.929 71.048ZM414.261 70.536C411.701 70.536 409.568 69.768 407.861 68.232C406.154 66.6107 405.301 63.88 405.301 60.04C405.301 59.016 405.386 57.9067 405.557 56.712C406.325 52.36 408.117 48.2213 410.933 44.296C414.432 39.5173 418.058 37.128 421.813 37.128C423.776 37.128 425.61 37.6827 427.317 38.792C429.024 39.816 429.877 41.352 429.877 43.4C429.877 45.704 428.938 48.0933 427.061 50.568H429.621C430.048 50.568 430.304 50.6107 430.389 50.696C430.389 51.208 428.81 51.7627 425.653 52.36C423.776 54.4933 422.368 55.56 421.429 55.56C421.258 55.56 421.173 55.4747 421.173 55.304C421.173 55.3893 421.813 54.536 423.093 52.744C421.984 52.744 420.49 52.8293 418.613 53C416.821 53.0853 414.645 53.2987 412.085 53.64C411.146 56.2 410.677 58.5893 410.677 60.808C410.677 63.624 411.445 65.672 412.981 66.952C413.92 67.8053 415.072 68.232 416.437 68.232C416.693 68.232 416.949 68.232 417.205 68.232C417.461 68.232 417.717 68.1893 417.973 68.104C423.434 67.1653 428.725 64.008 433.845 58.632C434.272 58.0347 434.613 57.9493 434.869 58.376C434.954 58.4613 434.997 58.5893 434.997 58.76C434.997 59.1013 434.741 59.528 434.229 60.04C432.437 62.344 429.621 64.6053 425.781 66.824C421.514 69.2987 417.674 70.536 414.261 70.536ZM413.365 50.952C414.56 50.8667 416.096 50.824 417.973 50.824L424.373 50.696C425.312 48.8187 425.909 47.3253 426.165 46.216C426.421 45.1067 426.549 44.2107 426.549 43.528C426.549 41.736 425.866 40.84 424.501 40.84C422.794 40.84 420.917 41.864 418.869 43.912C417.674 45.1067 416.608 46.3013 415.669 47.496C414.73 48.6053 413.962 49.7573 413.365 50.952ZM441.475 69.64C440.366 69.64 439.427 69.512 438.659 69.256C437.891 69.0853 437.294 68.872 436.867 68.616C435.843 67.848 435.331 66.3973 435.331 64.264C435.331 63.5813 435.374 62.8133 435.459 61.96C435.63 61.1067 435.8 60.1253 435.971 59.016C436.312 56.968 437.422 53.2987 439.299 48.008C439.726 46.8987 440.067 45.9173 440.323 45.064C440.664 44.2107 440.92 43.4853 441.091 42.888L441.731 41.224C439.854 41.224 436.696 41.608 432.259 42.376H432.131C431.79 42.376 431.619 41.9493 431.619 41.096C431.619 40.072 432.003 39.432 432.771 39.176C433.368 38.92 436.654 38.5787 442.627 38.152C443.31 35.9333 444.12 33.3733 445.059 30.472C446.083 27.4853 447.235 24.2 448.515 20.616C448.6 20.104 448.942 19.848 449.539 19.848C450.222 19.848 450.99 20.4453 451.843 21.64C452.696 22.7493 453.123 23.816 453.123 24.84C453.123 25.1813 453.08 25.4373 452.995 25.608L446.723 38.152C447.832 38.0667 448.814 38.024 449.667 38.024C450.606 38.024 451.502 38.024 452.355 38.024C457.219 38.024 459.694 38.408 459.779 39.176C459.779 39.5173 457.731 39.8587 453.635 40.2C452.526 40.2853 451.544 40.3707 450.691 40.456C449.838 40.456 449.07 40.5413 448.387 40.712L445.955 41.096C445.016 41.096 443.694 44.6373 441.987 51.72C440.451 58.0347 439.683 61.7893 439.683 62.984C439.683 65.544 440.622 66.824 442.499 66.824C443.95 66.824 446.808 65.672 451.075 63.368C451.587 63.0267 452.227 62.6 452.995 62.088C453.763 61.4907 454.702 60.7653 455.811 59.912C457.518 58.4613 458.584 57.736 459.011 57.736C459.182 57.736 459.31 57.9067 459.395 58.248C459.395 59.4427 457.176 61.576 452.739 64.648C448.131 67.976 444.376 69.64 441.475 69.64ZM466.69 35.08C466.007 35.08 465.282 34.952 464.514 34.696C463.831 34.3547 463.49 34.056 463.49 33.8C463.49 33.6293 463.533 33.5013 463.618 33.416C466.605 30.9413 469.079 29.704 471.042 29.704C471.554 29.704 471.81 29.8747 471.81 30.216C471.81 30.728 471.255 31.5813 470.146 32.776C469.037 33.9707 468.141 34.696 467.458 34.952C467.373 34.952 467.245 34.9947 467.074 35.08C466.989 35.08 466.861 35.08 466.69 35.08ZM460.674 68.872C457.943 68.872 456.578 66.4827 456.578 61.704V60.168C456.578 59.656 456.621 59.1013 456.706 58.504C456.877 57.3947 457.133 56.0293 457.474 54.408C457.815 52.7867 458.285 50.8667 458.882 48.648L460.93 41.352C461.015 40.7547 461.869 40.456 463.49 40.456C465.453 40.456 466.434 40.9253 466.434 41.864C466.434 42.9733 466.135 44.168 465.538 45.448C464.855 47.24 464.087 48.1787 463.234 48.264C462.807 48.4347 462.167 52.104 461.314 59.272C461.143 60.4667 461.058 61.4053 461.058 62.088C461.058 64.7333 461.741 66.056 463.106 66.056C464.13 66.056 465.495 65.3307 467.202 63.88L475.01 57.352C475.351 57.096 475.607 57.0533 475.778 57.224C476.034 57.3093 476.077 57.5653 475.906 57.992C474.455 60.2107 471.767 62.7707 467.842 65.672C464.941 67.8053 462.551 68.872 460.674 68.872ZM479.439 71.176C475.172 71.176 473.039 68.36 473.039 62.728C473.039 60.936 473.295 58.9307 473.807 56.712C474.831 52.7013 476.708 48.6053 479.439 44.424C482.938 39.1333 486.308 36.488 489.551 36.488C491.172 36.488 492.708 37.128 494.159 38.408C495.183 39.3467 495.695 40.5413 495.695 41.992C495.695 42.3333 495.652 42.5893 495.567 42.76C495.482 42.8453 495.396 42.9307 495.311 43.016C495.055 43.016 494.756 42.7173 494.415 42.12C493.903 41.096 492.964 40.584 491.599 40.584C489.21 40.584 486.607 42.8453 483.791 47.368C481.658 50.5253 479.994 53.9387 478.799 57.608C477.946 59.656 477.519 61.704 477.519 63.752C477.519 67.1653 478.842 68.872 481.487 68.872C486.01 68.872 491.215 65.5867 497.103 59.016C497.53 58.5893 497.828 58.5467 497.999 58.888V59.016C497.999 59.3573 497.743 59.8693 497.231 60.552C495.354 62.9413 492.708 65.2453 489.295 67.464C485.37 69.9387 482.084 71.176 479.439 71.176ZM499.051 72.456C495.808 72.456 494.187 71.7733 494.187 70.408C494.187 68.7867 495.552 67.8907 498.283 67.72C501.867 67.5493 506.304 67.1227 511.595 66.44C512.278 65.3307 512.619 64.3493 512.619 63.496C512.619 62.1307 511.638 60.5947 509.675 58.888C504.982 54.792 502.635 50.8667 502.635 47.112C502.635 45.832 502.934 44.6373 503.531 43.528C506.432 38.5787 510.016 36.104 514.283 36.104C516.075 36.104 517.611 36.5733 518.891 37.512C520.171 38.4507 520.811 39.4747 520.811 40.584C520.811 40.9253 520.726 41.2667 520.555 41.608C520.47 41.864 520.342 41.992 520.171 41.992C520 41.992 519.787 41.736 519.531 41.224C519.36 39.7733 518.55 39.048 517.099 39.048C514.966 39.048 512.747 40.2 510.443 42.504C508.224 44.8933 507.115 47.1547 507.115 49.288C507.115 51.1653 508.352 53.5973 510.827 56.584C513.302 59.4853 514.539 61.6613 514.539 63.112C514.539 63.7947 514.326 64.648 513.899 65.672C515.008 65.16 516.374 64.4347 517.995 63.496C519.702 62.5573 521.707 61.4053 524.011 60.04C524.267 60.2107 523.286 61.2773 521.067 63.24L512.875 68.104C512.192 69.2987 510.4 70.3227 507.499 71.176C504.854 72.0293 502.038 72.456 499.051 72.456Z"
        fill="#F9369F"></path>
</svg>