<svg width="385" height="76" viewBox="0 0 385 76" fill="none" xmlns="http://www.w3.org/2000/svg">
    <path
        d="M284.198 11.7759C284.198 11.7759 277.851 15.5439 274.322 16.6119C272.427 14.4231 269.91 12.8717 267.11 12.1676C264.309 11.4635 261.361 11.6406 258.664 12.675C255.968 13.7094 253.652 15.5511 252.031 17.9511C250.409 20.3512 249.56 23.1936 249.599 26.0941V29.2549C244.071 29.3989 238.594 28.167 233.655 25.6688C228.716 23.1707 224.469 19.4838 221.291 14.9367C221.291 14.9367 208.709 43.3836 237.018 56.0266C230.54 60.445 222.823 62.6607 215 62.3481C243.308 78.1519 277.908 62.3481 277.908 25.9993C277.905 25.1189 277.82 24.2406 277.656 23.3759C280.866 20.1946 284.198 11.7759 284.198 11.7759Z"
        stroke="black" stroke-width="8.62364" stroke-linecap="round" stroke-linejoin="round" />
    <path
        d="M347.138 6C329.389 6 315 19.4212 315 35.9772C315 52.533 329.389 65.9544 347.138 65.9544C364.888 65.9544 379.277 52.533 379.277 35.9772C379.277 19.4212 364.888 6 347.138 6Z"
        stroke="black" stroke-width="9.486" stroke-linecap="round" stroke-linejoin="round" />
    <path d="M322.299 55C322.299 55 329.462 46.4694 347.138 46.4694C364.814 46.4694 371.978 55 371.978 55"
        stroke="black" stroke-width="9.486" stroke-linecap="round" stroke-linejoin="round" />
    <path
        d="M347.138 35.977C352.463 35.977 356.78 31.9508 356.78 26.9839C356.78 22.0171 352.463 17.9907 347.138 17.9907C341.813 17.9907 337.497 22.0171 337.497 26.9839C337.497 31.9508 341.813 35.977 347.138 35.977Z"
        stroke="black" stroke-width="9.486" stroke-linecap="round" stroke-linejoin="round" />
    <path
        d="M183.943 23.4153V51.2798C183.943 60.8979 175.369 68.695 164.792 68.695H134.151C123.574 68.695 115 60.8979 115 51.2798V23.4153C115 13.7971 123.574 6 134.151 6H164.792C175.369 6 183.943 13.7971 183.943 23.4153Z"
        stroke="black" stroke-width="10.54" stroke-linecap="round" stroke-linejoin="round" />
    <path
        d="M141.811 37.3474C135.465 37.3474 130.321 42.0255 130.321 47.7966C130.321 53.5677 135.465 58.2458 141.811 58.2458C148.157 58.2458 153.302 53.5677 153.302 47.7966V16.4491C154.578 19.9322 159.43 26.8983 168.622 26.8983"
        stroke="black" stroke-width="10.54" stroke-linecap="round" stroke-linejoin="round" />
    <path
        d="M84.0416 9.82947L5 40.2245L34.1206 44.2772M84.0416 9.82947L73.6414 70.6195L34.1206 44.2772M84.0416 9.82947L34.1206 44.2772M34.1206 44.2772V66.5669L47.6359 53.2859"
        stroke="black" stroke-width="9.98526" stroke-linecap="round" stroke-linejoin="round" />
</svg>